# xmcd
#
# Track frame offsets: 
#        150
#        23823
#        44136
#        67221
#        92639
#        118505
#        166126
#
# Disc length: 2595 seconds
#
# Revision: 3
# Processed by: cddbd v1.5.2PL0 Copyright (c) Steve Scherf et al.
# Submitted via: ExactAudioCopyFreeDBPlugin 1.0
#
DISCID=5c0a2107
DTITLE=Thelonious Monk - Vol.06 - We See
DYEAR=2008
DGENRE=Jazz
TTITLE0=We See
TTITLE1=Smoke Gets In Your Eyes
TTITLE2=Let's Call This
TTITLE3=Think Of One  (Take 1)
TTITLE4=Think Of One  (Take 2)
TTITLE5=Friday the 13th
TTITLE6=Locomotive
EXTD=
EXTT0=
EXTT1=
EXTT2=
EXTT3=
EXTT4=
EXTT5=
EXTT6=
PLAYORDER=
